<svg width="32" height="32" viewBox="0 0 32 32" fill="none" xmlns="http://www.w3.org/2000/svg">
<path d="M0.0789326 0.110954C0.0197331 0.170155 0 3.11697 0 12.9704V25.7509L0.151287 25.8496C0.28942 25.9351 1.28265 25.9482 8.86676 25.9351L17.4244 25.9153L17.1613 25.5009L16.9047 25.0931H8.84703H0.789326V12.6415C0.789326 3.04462 0.769593 0.170155 0.710393 0.110954C0.664349 0.0649109 0.526217 0.0320225 0.394663 0.0320225C0.263109 0.0320225 0.124977 0.0649109 0.0789326 0.110954Z" fill="#E33918"/>
<path d="M21.1604 0.171174C21.0946 0.256684 21.0486 0.375082 21.0486 0.434282C21.0486 0.605303 21.259 0.809212 21.5024 0.868411L21.7195 0.927611L20.3842 1.94058C19.6475 2.49311 18.799 3.1443 18.4964 3.37452L17.957 3.7955L18.1873 4.05203C18.3122 4.19674 18.4175 4.34145 18.4175 4.38091C18.4175 4.42038 18.4635 4.44011 18.5161 4.4138C18.5688 4.39407 19.4107 3.76918 20.3908 3.0259C21.3643 2.28262 22.1799 1.67747 22.1997 1.67747C22.2194 1.67747 22.2325 1.78929 22.2325 1.92742C22.2325 2.35498 22.6535 2.56546 22.9232 2.26947C23.0942 2.07871 23.3047 0.657924 23.1995 0.427704C23.1074 0.23695 22.7061 0.131707 21.7984 0.0593524C21.2919 0.019886 21.259 0.019886 21.1604 0.171174Z" fill="#E33918"/>
<path d="M10.1955 1.73518C9.6035 1.91935 9.25488 2.36664 9.25488 2.94548C9.25488 4.31364 11.0901 4.72804 11.6492 3.48485C12.0899 2.51793 11.1887 1.4326 10.1955 1.73518Z" fill="#E33918"/>
<path d="M12.4587 3.36646C12.439 3.43224 12.3666 3.60983 12.3008 3.76112C12.2285 3.91241 12.1956 4.05054 12.2219 4.07027C12.3337 4.13605 14.557 4.96484 14.6293 4.96484C14.6688 4.96484 14.7609 4.80698 14.8332 4.61622C14.9056 4.43205 14.9714 4.25445 14.9845 4.23472C14.9911 4.21498 14.6359 4.0637 14.1952 3.89268C13.7479 3.72823 13.1822 3.51775 12.9389 3.42566C12.531 3.26779 12.4916 3.26122 12.4587 3.36646Z" fill="#E33918"/>
<path d="M7.17669 4.70813C5.74932 5.68163 5.71643 5.70795 5.82168 5.84608C5.88088 5.91843 5.98612 6.08288 6.05847 6.1947C6.13741 6.31967 6.22949 6.39203 6.26896 6.36572C6.315 6.34598 6.97278 5.8987 7.74237 5.37906L9.13027 4.43187L8.90005 4.08983C8.77507 3.89907 8.66325 3.74121 8.65667 3.72805C8.64352 3.72147 7.97917 4.16218 7.17669 4.70813Z" fill="#E33918"/>
<path d="M16.1478 4.13005C15.8847 4.25503 15.5558 4.62996 15.4572 4.93253C15.3519 5.24169 15.4111 5.70213 15.5953 5.99155C15.9308 6.5375 16.799 6.72167 17.345 6.36648C17.7199 6.12968 17.9172 5.74817 17.9238 5.29431C17.9238 4.86676 17.7791 4.58391 17.4107 4.28792C17.2068 4.1169 17.095 4.07743 16.753 4.06428C16.503 4.05112 16.2662 4.07743 16.1478 4.13005Z" fill="#E33918"/>
<path d="M21.0423 4.82852L20.8516 5.01928V10.6893V16.3593L21.0028 16.3198C21.3054 16.2277 22.6012 16.2014 23.088 16.2737C23.5024 16.3395 24.2786 16.5697 24.7521 16.7737C24.8574 16.8197 24.864 16.5171 24.864 11.0313C24.864 7.57801 24.8377 5.17056 24.8048 5.07847C24.7653 4.98639 24.6732 4.84826 24.5943 4.7759C24.4496 4.64435 24.3772 4.63777 22.838 4.63777H21.2331L21.0423 4.82852Z" fill="#E33918"/>
<path d="M3.92059 5.98513C3.41411 6.16273 3.0918 6.6166 3.0918 7.16255C3.0918 7.70192 3.34833 8.09658 3.84823 8.3268C4.27579 8.52413 4.73623 8.46493 5.15062 8.16236C5.53213 7.87952 5.70973 7.14939 5.49924 6.65606C5.3348 6.24824 4.75596 5.87989 4.30867 5.88647C4.23632 5.89305 4.0653 5.93251 3.92059 5.98513Z" fill="#E33918"/>
<path d="M8.77477 7.38634C8.69584 7.44555 8.59717 7.56394 8.55771 7.64288C8.50508 7.74812 8.48535 9.91877 8.48535 15.4046C8.48535 22.8374 8.49193 23.0282 8.61691 23.2321C8.80766 23.5544 9.04446 23.5938 10.6757 23.5675L12.1163 23.5478L12.307 23.3307L12.4978 23.1202V15.3848V7.64945L12.307 7.4587L12.1163 7.26795H10.5113C9.09708 7.26795 8.89975 7.2811 8.77477 7.38634Z" fill="#E33918"/>
<path d="M14.885 10.0568L14.7009 10.2147L14.6811 16.6674L14.668 23.1136L14.8587 23.3306C15.0429 23.5346 15.0626 23.5411 15.6875 23.5674L16.3256 23.5938L16.2664 23.278C16.24 23.1004 16.2203 22.5545 16.2203 22.0677C16.2269 21.3113 16.2532 21.0942 16.4045 20.5877C16.7465 19.4564 17.5161 18.2658 18.3318 17.6343L18.6738 17.3647V13.8916C18.6804 11.4513 18.6606 10.3725 18.608 10.2739C18.4238 9.9121 18.3778 9.89894 16.661 9.89894C15.0758 9.89894 15.0692 9.89894 14.885 10.0568Z" fill="#E33918"/>
<path d="M2.55892 12.194L2.36816 12.3848V17.7588C2.36816 21.4818 2.3879 23.1723 2.44052 23.2643C2.58523 23.534 2.86807 23.5801 4.35463 23.5801C5.55836 23.5801 5.78858 23.5603 5.98591 23.4617C6.39373 23.2578 6.38715 23.3959 6.36742 17.6141L6.34768 12.3848L6.13062 12.194L5.92013 12.0033H4.3349H2.74967L2.55892 12.194Z" fill="#E33918"/>
<path d="M21.1141 17.0362C19.4894 17.3782 18.187 18.3912 17.4635 19.8646C17.082 20.6276 16.9701 21.0815 16.9241 21.976C16.7202 26.0345 20.9497 28.7708 24.5937 26.9422C25.3765 26.5475 25.4225 26.5541 26.1592 27.2777L26.7775 27.8828L27.3103 27.3434L27.8497 26.8106L27.2445 26.1923C26.521 25.4556 26.5144 25.4096 26.9091 24.6268C28.0339 22.3838 27.4616 19.6738 25.5343 18.1149C25.0081 17.6939 24.199 17.273 23.5807 17.1019C23.0348 16.9506 21.6666 16.9178 21.1141 17.0362ZM23.2453 18.0557C25.0607 18.5161 26.3697 20.1145 26.4881 22.0023C26.6394 24.4953 24.4622 26.6725 21.9692 26.5212C20.0353 26.3962 18.4041 25.0149 17.9831 23.1469C17.845 22.4957 17.8844 21.4893 18.0818 20.9302C18.4172 19.9764 19.1342 19.0489 19.8906 18.5885C20.3248 18.3254 20.9497 18.0689 21.3312 17.9899C21.8508 17.8913 22.7125 17.9176 23.2453 18.0557Z" fill="#E33918"/>
<path d="M21.2653 18.7454C20.0419 19.0742 19.0289 20.1004 18.7132 21.3238C18.5948 21.7645 18.5882 22.5144 18.6869 23.0011C18.8776 23.9154 19.5814 24.8824 20.3971 25.3428C20.8509 25.5993 21.66 25.8164 22.1599 25.8164C24.1595 25.8098 25.7777 24.1917 25.7842 22.1921C25.7842 21.6922 25.5672 20.8831 25.3106 20.4293C24.8502 19.6136 23.8833 18.9098 22.969 18.719C22.4954 18.6204 21.6797 18.6335 21.2653 18.7454Z" fill="#E33918"/>
<path d="M27.8103 27.8426C26.9355 28.7174 26.8895 28.5924 28.6589 30.3684C29.4416 31.1577 30.1783 31.8418 30.2967 31.901C30.619 32.0523 31.1781 32.0326 31.4478 31.8484C31.803 31.6116 31.9675 31.309 31.9675 30.9012C31.9675 30.7039 31.9214 30.4473 31.8688 30.3289C31.8096 30.2105 31.1255 29.4738 30.3362 28.6911C28.5602 26.9217 28.6852 26.9677 27.8103 27.8426Z" fill="#E33918"/>
</svg>
