<svg width="32" height="27" viewBox="0 0 32 27" fill="none" xmlns="http://www.w3.org/2000/svg">
<path d="M1.34475 0.141789C1.02606 0.307267 0.854449 0.59532 0.854449 0.956918C0.854449 1.1224 0.885093 1.31852 0.921866 1.39206C0.958639 1.46561 1.547 2.08461 2.22117 2.76491L3.45918 4.00905L2.22117 5.24707C1.54087 5.93349 0.958639 6.57089 0.921866 6.66282C0.609298 7.48407 1.36314 8.23792 2.17827 7.92535C2.27633 7.8947 2.90759 7.30634 3.59402 6.62604L4.83816 5.39416L6.0823 6.62604C6.7626 7.30634 7.39999 7.8947 7.49192 7.93148C8.08642 8.15211 8.68091 7.82116 8.79735 7.20828C8.88316 6.77314 8.77284 6.61992 7.44289 5.2961L6.18649 4.0397L7.41225 2.81394C8.88316 1.3369 8.98735 1.14691 8.69317 0.540161C8.60123 0.350168 8.49704 0.245979 8.30705 0.154047C7.7003 -0.140135 7.51031 -0.0359449 6.03327 1.43496L4.80752 2.66072L3.58176 1.42883C2.90759 0.748539 2.2702 0.160176 2.15988 0.111145C1.89021 -0.00530148 1.59603 0.000827312 1.34475 0.141789Z" fill="#E33918"/>
<path d="M26.4728 1.80311C25.8967 1.87053 25.5841 1.96246 25.0325 2.23213C24.1132 2.67953 23.5003 3.29241 23.0345 4.22398C22.7281 4.83686 22.6178 5.24136 22.5749 5.94004C22.4523 7.699 23.4206 9.35991 25.0325 10.1444C26.9386 11.0698 29.102 10.5857 30.4381 8.94315C31.431 7.71126 31.6639 5.92779 31.0326 4.42623C30.5791 3.34144 29.5494 2.39148 28.4401 2.01762C28.0601 1.89504 27.0427 1.71731 26.9018 1.74795C26.8834 1.75408 26.6934 1.7786 26.4728 1.80311ZM27.7966 3.81335C28.054 3.89303 28.6056 4.25463 28.8078 4.47526C29.243 4.95331 29.4759 5.5478 29.4759 6.17907C29.4759 6.70001 29.3594 7.11064 29.102 7.50901C28.2133 8.90025 26.3502 9.1025 25.198 7.9319C24.6464 7.36805 24.3767 6.53454 24.5054 5.81134C24.7935 4.2485 26.2828 3.34757 27.7966 3.81335Z" fill="#E33918"/>
<path d="M16.189 2.23316C15.6252 2.36799 15.3126 3.12183 15.6191 3.61214C15.6804 3.71633 16.1768 4.18824 16.7161 4.65403C17.2555 5.12595 17.6967 5.51819 17.6845 5.52432C17.6783 5.53045 17.4822 5.56722 17.2493 5.60399C14.3627 6.04526 11.5741 7.25263 9.37384 9.0116C8.69967 9.55093 7.60875 10.6602 6.98974 11.4263C5.7456 12.9769 4.67919 14.932 4.04792 16.8319L3.8518 17.4203L3.39214 17.5245C1.84156 17.8677 0.517742 19.1609 0.119371 20.7176C-0.0277204 21.2937 -0.0399779 22.2375 0.0887266 22.8504C0.278719 23.7452 0.916113 24.7442 1.66382 25.308C3.21441 26.4848 5.26142 26.5644 6.83039 25.5164C8.2155 24.591 8.96321 22.9975 8.77934 21.3917C8.65677 20.3437 8.23388 19.4367 7.5352 18.738C7.14909 18.3457 6.45041 17.8738 6.05204 17.7329C5.92333 17.69 5.81914 17.6348 5.81914 17.6164C5.81914 17.5306 6.12558 16.6971 6.33396 16.219C7.12457 14.3927 8.24001 12.7318 9.5577 11.4263C11.2676 9.72866 13.2227 8.59484 15.6129 7.90841C16.3852 7.68165 17.8132 7.40586 17.8683 7.46101C17.8928 7.4794 17.5312 7.92067 17.0716 8.44775C16.6181 8.96869 16.189 9.48351 16.1155 9.59996C15.8642 10.0106 15.9991 10.5744 16.4219 10.887C16.6058 11.0218 17.0716 11.0464 17.3351 10.936C17.5006 10.8686 20.8163 7.13619 21.0001 6.80523C21.0982 6.63976 21.0982 6.14332 21.0063 5.94107C20.9389 5.78786 17.1513 2.4538 16.8939 2.31896C16.6916 2.20864 16.4158 2.178 16.189 2.23316ZM5.15723 19.4489C6.07655 19.7615 6.70169 20.5031 6.86716 21.4714C7.15522 23.0772 5.60463 24.5971 3.99276 24.3029C3.26957 24.1681 2.65056 23.7513 2.25832 23.1384C1.70673 22.2743 1.79866 21.0485 2.47282 20.2211C3.09796 19.4612 4.23179 19.1302 5.15723 19.4489Z" fill="#E33918"/>
<path d="M13.4805 18.4006C13.2415 18.5293 12.9902 18.9461 12.9902 19.2219C12.9902 19.5651 13.1802 19.8102 14.3937 21.0176L15.6256 22.2372L14.3753 23.4998C13.027 24.8542 12.9228 25.0074 13.0209 25.4977C13.076 25.8103 13.4376 26.1719 13.7502 26.2271C14.2466 26.3251 14.3937 26.2209 15.7482 24.8726L17.0046 23.6223L18.2303 24.8542C18.9045 25.5345 19.5419 26.1229 19.6522 26.1719C20.2835 26.4477 20.9577 26.0126 20.9577 25.3261C20.9577 25.1607 20.927 24.9645 20.8902 24.891C20.8535 24.8174 20.2651 24.1984 19.5909 23.5181L18.3529 22.274L19.5909 21.036C20.2712 20.3496 20.8535 19.7122 20.8902 19.6202C20.9944 19.3506 20.9699 18.9522 20.8351 18.7316C20.5838 18.3209 20.0261 18.1677 19.5909 18.3883C19.4806 18.4435 18.8494 19.0319 18.1813 19.6876L16.9739 20.895L15.7298 19.657C15.0495 18.9828 14.4305 18.3945 14.357 18.3577C14.1547 18.2535 13.7196 18.278 13.4805 18.4006Z" fill="#E33918"/>
</svg>
