<svg width="16" height="23" viewBox="0 0 16 23" fill="none" xmlns="http://www.w3.org/2000/svg">
<g opacity="0.9">
<path fill-rule="evenodd" clip-rule="evenodd" d="M7.26473 5.94617e-05C7.26771 1.98381e-05 7.2707 0 7.27369 0H9.32716C11.1071 0.0142329 12.8088 0.733321 14.0596 1.99973C15.31 3.26576 16.0079 4.97563 16.0005 6.75501V15.1387C16.0066 16.1582 15.8119 17.1689 15.4276 18.1132C15.0431 19.0582 14.4761 19.9182 13.7592 20.6441C13.0423 21.37 12.1894 21.9476 11.2492 22.3439C10.309 22.7401 9.30005 22.9473 8.27981 22.9537H8.27161C7.25137 22.9473 6.24237 22.7401 5.30222 22.3439C4.36206 21.9476 3.50917 21.37 2.79223 20.6441C2.0753 19.9182 1.50836 19.0582 1.1238 18.1132C0.739501 17.1688 0.544844 16.1581 0.550919 15.1386V6.74943C0.562339 4.96882 1.27243 3.26387 2.52834 2.00157C3.78392 0.73958 5.48469 0.0208828 7.26473 5.94617e-05ZM7.27761 1.32425C5.8455 1.34169 4.47732 1.9202 3.4671 2.93557C2.4565 3.95132 1.8849 5.32309 1.87517 6.75586V15.1447C1.8699 15.991 2.03136 16.8301 2.35038 17.6141C2.66939 18.398 3.13969 19.1114 3.73442 19.7136C4.32915 20.3157 5.03666 20.7948 5.81656 21.1236C6.59521 21.4518 7.43078 21.6236 8.27571 21.6294C9.12065 21.6236 9.95622 21.4518 10.7349 21.1236C11.5148 20.7948 12.2223 20.3157 12.817 19.7136C13.4117 19.1114 13.882 18.398 14.201 17.6141C14.5201 16.8301 14.6815 15.991 14.6763 15.1447L14.6763 15.1406V6.75076C14.6825 5.32119 14.122 3.9474 13.1174 2.93029C12.1134 1.91379 10.7477 1.33635 9.31914 1.32425H7.27761ZM8.27571 3.97275C8.64139 3.97275 8.93784 4.26919 8.93784 4.63487V8.60762C8.93784 8.97331 8.64139 9.26975 8.27571 9.26975C7.91003 9.26975 7.61359 8.97331 7.61359 8.60762V4.63487C7.61359 4.26919 7.91003 3.97275 8.27571 3.97275Z" fill="white"/>
</g>
</svg>
