<svg width="23" height="23" viewBox="0 0 23 23" fill="none" xmlns="http://www.w3.org/2000/svg">
<path d="M10.5679 1.03291C10.4861 1.08459 10.3913 1.19657 10.344 1.30424C10.2621 1.48083 10.2578 1.66172 10.2578 7.59238V13.6953L16.4081 13.6867C22.2311 13.6738 22.5627 13.6695 22.6963 13.5963C23.0107 13.424 23.071 13.0966 22.9418 12.274C22.5843 10.0258 21.7358 8.02307 20.3834 6.22708C18.2903 3.45341 15.2108 1.5885 11.8083 1.03291C11.1063 0.920925 10.7531 0.920925 10.5679 1.03291Z" fill="#E33918"/>
<path d="M7.80045 5.79377C4.98371 6.40536 2.62781 8.39516 1.564 11.0525C1.30127 11.7158 1.11177 12.4222 1.01271 13.1199C0.905034 13.8994 0.948103 15.2906 1.10315 16.0228C1.67167 18.7232 3.39875 20.9585 5.84079 22.1386C7.08119 22.7416 8.22253 23 9.65243 23C11.0823 23 12.2237 22.7416 13.4641 22.1386C14.0111 21.8759 14.6872 21.4495 14.8595 21.2643C14.9715 21.1394 15.0275 20.8164 14.9758 20.601C14.9543 20.5192 14.0197 19.5544 12.004 17.5302C9.55337 15.0752 9.05807 14.5541 9.03223 14.4335C9.01931 14.356 9.00639 12.4652 9.00639 10.2342C9.00639 5.64733 9.03223 5.97897 8.66183 5.78516C8.43787 5.66456 8.37758 5.66456 7.80045 5.79377Z" fill="#E33918"/>
<path d="M11.2031 14.9786C11.2031 14.9958 12.6115 16.4171 14.3386 18.1399C16.6945 20.4915 17.4999 21.2753 17.5989 21.2969C17.6722 21.3141 17.754 21.3356 17.7884 21.3442C17.9133 21.383 18.2019 21.2624 18.344 21.116C18.6068 20.836 19.2571 19.798 19.5586 19.1865C19.9204 18.437 20.1529 17.8125 20.3468 17.033C20.6267 15.9218 20.6569 15.3877 20.4587 15.1767C20.2305 14.9312 20.4932 14.9441 15.6608 14.9441C13.2102 14.9441 11.2031 14.957 11.2031 14.9786Z" fill="#E33918"/>
</svg>
