<svg width="18" height="18" viewBox="0 0 18 18" fill="none" xmlns="http://www.w3.org/2000/svg">
<path d="M4.29219 0.0738283C4.21133 0.116016 4.09531 0.207422 4.03555 0.277735C3.82812 0.53086 3.82812 0.527344 3.82812 3.06563V5.37891H4.49609H5.16406V3.28711V1.19531H9.45312H13.7422V4.11328V7.03125H14.3398H14.9375V3.81445C14.9375 0.291797 14.948 0.460547 14.7336 0.235547C14.6809 0.179297 14.5789 0.105469 14.5086 0.0667971C14.382 0.00351581 14.2309 1.86265e-07 9.41094 1.86265e-07H4.44336L4.29219 0.0738283Z" fill="#E33918"/>
<path d="M6.71358 2.54843C6.55538 2.61874 6.47452 2.69257 6.39366 2.85078C6.2671 3.09687 6.33038 3.48359 6.52725 3.65937C6.71358 3.83164 6.68194 3.82812 9.40304 3.82812C11.6249 3.82812 11.9694 3.82109 12.0855 3.77539C12.3562 3.65937 12.4898 3.45546 12.4898 3.15664C12.4898 2.92109 12.4194 2.77695 12.2226 2.61874L12.0855 2.50976L9.4628 2.50273C7.18116 2.4957 6.81905 2.50273 6.71358 2.54843Z" fill="#E33918"/>
<path d="M6.66401 4.95352C6.52338 5.03789 6.4144 5.16445 6.36869 5.28398C6.31244 5.42813 6.31596 5.43516 6.48119 5.48086C6.73783 5.5582 7.02963 5.73398 7.27924 5.96602L7.5183 6.1875L9.81752 6.18047L12.1132 6.16992L12.2292 6.08906C12.6019 5.82188 12.5738 5.20313 12.18 4.97109L12.0359 4.88672H9.40268C6.89604 4.88672 6.76596 4.89023 6.66401 4.95352Z" fill="#E33918"/>
<path d="M1.65234 6.17344C1.20586 6.24375 0.9 6.48633 0.773438 6.86602C0.720703 7.03828 0.724219 7.35469 0.7875 7.70625C0.829688 7.95938 0.829688 7.98047 0.773438 7.98047C0.741797 7.98047 0.632813 8.00508 0.534375 8.0332C0.207422 8.13164 0 8.41641 0 8.76797C0 8.94727 1.2375 17.0578 1.30078 17.3004C1.37109 17.557 1.65234 17.8523 1.92305 17.9508C2.03203 17.9895 3.26953 17.9965 8.87695 18H15.6973L15.8555 17.9156C16.0488 17.8172 16.2281 17.5641 16.2598 17.3531C16.2949 17.1211 15.0363 8.6168 14.9379 8.40938C14.8535 8.24063 14.6918 8.1 14.4949 8.02969C14.3859 7.99102 13.7355 7.98398 11.1445 7.98047L7.92773 7.97695L7.48828 7.44609C6.62695 6.40547 6.44414 6.2543 5.97305 6.1875C5.76211 6.15586 1.8457 6.14531 1.65234 6.17344Z" fill="#E33918"/>
<path d="M15.6895 6.86445C15.7035 6.92773 15.7738 7.58164 15.8512 8.31641C15.9777 9.49062 16.6773 14.4828 16.7582 14.7852L16.7898 14.8906L16.8109 14.7852C16.8777 14.4758 17.8551 7.69062 17.8551 7.53594C17.8551 7.23008 17.7039 6.98047 17.4402 6.85039C17.2855 6.77305 17.2258 6.76953 16.4734 6.75898L15.6719 6.74492L15.6895 6.86445Z" fill="#E33918"/>
</svg>
