<svg width="24" height="19" viewBox="0 0 24 19" fill="none" xmlns="http://www.w3.org/2000/svg">
<path d="M10.9813 0.11274C10.8517 0.179927 10.6837 0.295106 10.6165 0.367093C10.4966 0.491871 5.20312 9.61502 5.20312 9.6966C5.20312 9.7158 5.3471 9.77819 5.52467 9.83578C6.08616 10.0181 6.84443 10.3445 7.59309 10.7188C7.99142 10.9204 8.32736 11.0644 8.33696 11.0452C8.98004 9.96535 13.4 2.27235 13.448 2.15717C13.5536 1.90282 13.5392 1.4085 13.4144 1.12536C13.2657 0.784618 13.0689 0.60705 12.5218 0.295106C12.0563 0.0311543 12.0323 0.021556 11.634 0.00715866C11.274 -0.00723873 11.1972 0.00715866 10.9813 0.11274Z" fill="#E33918"/>
<path d="M10.8171 8.16402C10.2028 9.22942 9.53573 10.3908 9.32937 10.7459L8.95504 11.3938L9.20459 11.5186C10.054 11.9457 11.1146 12.2769 12.0601 12.4016C12.7128 12.4928 12.8039 12.5216 12.9095 12.6848C13.0007 12.824 12.9719 12.9583 12.8231 13.1023C12.7272 13.1887 12.6792 13.1983 12.3576 13.1695C11.8537 13.1263 11.1002 12.9775 10.5387 12.8096C9.88607 12.6128 9.25738 12.3393 7.79845 11.6098C5.99397 10.7076 5.10613 10.362 4.58303 10.362C4.07912 10.362 3.628 10.65 3.40244 11.1059C3.28726 11.3458 3.27766 11.413 3.29686 11.7538C3.31606 12.0657 3.34485 12.1761 3.46003 12.3633C3.6376 12.656 3.95434 12.8672 4.40066 12.9967C5.13013 13.2079 5.87879 13.5006 6.57467 13.8414C7.68807 14.3837 8.37434 14.8396 10.3228 16.3225C11.4746 17.2008 12.1561 17.5559 13.0967 17.7671C13.495 17.8535 13.735 17.8631 15.8994 17.8823L18.2605 17.9062V13.6062C18.2605 9.55576 18.2558 9.31101 18.179 9.28701C18.131 9.27741 17.963 9.25342 17.8046 9.23422C17.0656 9.14784 16.4417 8.84549 15.3619 8.03924C14.3493 7.29057 13.9701 7.04102 13.3894 6.76267C12.9863 6.5659 12.0889 6.23476 11.9689 6.23476C11.9497 6.23476 11.4314 7.10341 10.8171 8.16402Z" fill="#E33918"/>
<path d="M4.51265 8.10421C3.30327 8.91526 3.0921 9.07843 2.76576 9.46716C2.43942 9.85589 2.31944 10.1006 1.4556 12.1451C0.548565 14.2855 0.538967 14.3383 0.735732 14.8038C0.79812 14.943 0.903701 15.1109 0.980487 15.1829L1.11486 15.3125L1.18685 15.2021C1.22524 15.1397 1.58518 14.5158 1.9883 13.8152L2.72257 12.5482L2.63619 12.2219C2.46342 11.5548 2.61699 10.8637 3.04891 10.3406C3.27447 10.0718 3.71599 9.8031 4.09032 9.70712L4.41187 9.62553L5.05495 8.50253C5.41008 7.88825 5.68843 7.37474 5.67404 7.36034C5.66444 7.34594 5.14133 7.68188 4.51265 8.10421Z" fill="#E33918"/>
<path d="M18.9766 13.6098V17.8906L21.3425 17.881L23.7037 17.8666L23.7181 13.5906L23.7277 9.30978L21.3521 9.31938L18.9766 9.32418V13.6098Z" fill="#E33918"/>
<path d="M2.52273 14.3052C2.1724 14.9147 1.90365 15.4282 1.92284 15.4474C1.99483 15.5098 4.76393 17.0935 4.80712 17.0935C4.85031 17.0983 4.87431 17.0551 5.72375 15.5818C6.13168 14.8763 6.30925 14.5211 6.27565 14.4876C6.25166 14.4636 5.77654 14.2764 5.22464 14.0796C4.21683 13.7197 3.42497 13.379 3.32899 13.259C3.29539 13.2254 3.2474 13.1966 3.21861 13.1966C3.18981 13.1966 2.87307 13.6957 2.52273 14.3052Z" fill="#E33918"/>
<path d="M6.70748 15.2792L6.45312 15.7303V16.3014C6.45312 16.9877 6.50592 17.194 6.73627 17.4244C7.1586 17.8467 7.86887 17.7459 8.13282 17.2276C8.21441 17.0644 8.2288 16.9493 8.2288 16.3302V15.6199L8.04644 15.5047C7.7009 15.2744 6.98583 14.828 6.97143 14.828C6.96183 14.828 6.84185 15.0344 6.70748 15.2792Z" fill="#E33918"/>
<path d="M1.75 17.6083C1.75 18.4817 1.7692 19 1.79799 19C1.86518 19 4.19756 17.6466 4.19756 17.6083C4.19756 17.5699 1.86998 16.2165 1.79799 16.2165C1.7644 16.2165 1.75 16.6916 1.75 17.6083Z" fill="#E33918"/>
<path d="M8.94531 16.5359C8.94531 16.9822 9.0221 17.2126 9.22846 17.4189C9.5404 17.7357 9.97713 17.7741 10.3611 17.5245L10.5482 17.3997L10.409 17.2893C10.3275 17.227 9.98672 16.963 9.64599 16.6943C9.30045 16.4303 9.0077 16.2143 8.98371 16.2143C8.96451 16.2143 8.94531 16.3583 8.94531 16.5359Z" fill="#E33918"/>
</svg>
