<svg width="24" height="24" viewBox="0 0 24 24" fill="none" xmlns="http://www.w3.org/2000/svg">
<path d="M19.6363 0.587422C18.4549 0.904965 17.4369 1.20383 17.3762 1.25053C17.1567 1.40463 17.0726 1.56807 17.0726 1.83425C17.068 2.10509 17.1473 2.26386 17.3808 2.43665C17.6237 2.6141 17.8198 2.59075 19.2627 2.19849C20.0099 1.99769 20.6216 1.83425 20.631 1.84359C20.659 1.86227 20.1266 2.69348 19.7484 3.22583C16.7971 7.35857 12.034 10.8422 7.05133 12.514C5.01999 13.1958 3.25015 13.5273 1.2048 13.6114C0.611738 13.6394 0.438957 13.6627 0.326883 13.7281C0.116744 13.8589 0 14.083 0 14.3539C0 14.6667 0.126083 14.8722 0.406269 14.9936C0.607068 15.0823 0.677115 15.087 1.30286 15.059C4.57636 14.9049 7.55099 14.125 10.7171 12.5794C13.561 11.1878 16.0079 9.43661 18.2821 7.16244C19.6317 5.81288 20.7711 4.42596 21.5322 3.19782C21.6957 2.92697 21.8358 2.71683 21.8404 2.7215C21.8498 2.72617 22.0039 3.28654 22.186 3.96833C22.3681 4.64544 22.5503 5.26185 22.5923 5.34123C22.639 5.41595 22.7651 5.52802 22.8818 5.58406C23.2227 5.76151 23.5122 5.71014 23.7644 5.4393C24.0025 5.18713 23.9792 5.04237 23.3254 2.60476C22.9705 1.28789 22.695 0.339926 22.639 0.265209C22.5082 0.0784187 22.3168 -0.00563622 22.0319 -0.000967026C21.8778 0.00370312 20.9859 0.223182 19.6363 0.587422Z" fill="#E33918"/>
<path d="M18.5669 8.06916C18.4922 8.12052 18.3895 8.22793 18.3335 8.31665L18.2354 8.47075L18.2214 15.4847L18.212 22.5034H17.5349H16.8578V17.7963C16.8578 13.2666 16.8531 13.0891 16.7691 12.9584C16.7224 12.8883 16.6197 12.7856 16.5496 12.7389C16.4235 12.6549 16.3021 12.6502 14.7611 12.6502C13.2107 12.6502 13.0987 12.6549 12.9632 12.7389C12.8839 12.7903 12.7765 12.9024 12.7251 12.9864C12.6317 13.1358 12.6317 13.2339 12.6177 17.8196L12.6037 22.5034H11.9312H11.2541V19.0804C11.2541 15.8116 11.2494 15.6575 11.1654 15.5268C11.1187 15.4567 11.016 15.354 10.9459 15.3073C10.8198 15.2232 10.6984 15.2186 9.15739 15.2186C7.60703 15.2186 7.49496 15.2232 7.35954 15.3073C7.28015 15.3586 7.17274 15.4707 7.12138 15.5548C7.03265 15.7042 7.02798 15.8023 7.01397 19.1038L6.99996 22.5034H6.32752H5.6504V19.921C5.6504 17.474 5.64573 17.3386 5.56168 17.2079C5.51498 17.1378 5.41225 17.0351 5.3422 16.9884C5.21612 16.9043 5.0947 16.8997 3.54901 16.8997C2.00333 16.8997 1.88191 16.9043 1.75583 16.9884C1.68578 17.0351 1.58305 17.1378 1.53635 17.2079C1.45229 17.3386 1.44762 17.474 1.44762 19.921V22.5034H0.94796C0.532352 22.5034 0.420278 22.5174 0.308204 22.5921C0.0933951 22.7369 0 22.9143 0 23.2038C0 23.4934 0.0933951 23.6708 0.308204 23.8156C0.438957 23.8996 0.7565 23.9043 11.9546 23.9043C23.1526 23.9043 23.4702 23.8996 23.6009 23.8156C23.8158 23.6708 23.9091 23.4934 23.9091 23.2038C23.9091 22.9143 23.8158 22.7369 23.6009 22.5921C23.4889 22.5174 23.3768 22.5034 22.9659 22.5034H22.4615V15.4614C22.4615 8.6482 22.4569 8.41939 22.3728 8.28863C22.3261 8.21859 22.2234 8.11585 22.1533 8.06916C22.0272 7.9851 21.9058 7.98043 20.3601 7.98043C18.8051 7.98043 18.693 7.9851 18.5669 8.06916Z" fill="#E33918"/>
</svg>
