<svg width="18" height="18" viewBox="0 0 18 18" fill="none" xmlns="http://www.w3.org/2000/svg">
<path d="M7.08282 10.0188C5.45043 8.38638 5.08185 6.75396 4.9987 6.09993C4.97546 5.91909 5.03769 5.73773 5.16707 5.60926L6.48807 4.28881C6.68239 4.09461 6.71688 3.79194 6.57122 3.559L4.46794 0.292982C4.3068 0.0350413 3.97593 -0.0580522 3.70394 0.0780195L0.327419 1.66827C0.107465 1.77658 -0.0219081 2.01028 0.00306514 2.25419C0.179985 3.93497 0.912729 8.06673 4.97304 12.1274C9.03336 16.1881 13.1644 16.9206 14.8461 17.0975C15.09 17.1225 15.3237 16.9931 15.432 16.7732L17.0222 13.3966C17.1577 13.1252 17.0653 12.7952 16.8084 12.6337L13.5425 10.531C13.3097 10.3852 13.007 10.4194 12.8127 10.6136L11.4923 11.9346C11.3638 12.064 11.1824 12.1262 11.0016 12.103C10.3476 12.0198 8.7152 11.6512 7.08282 10.0188Z" fill="#E33918"/>
<path d="M13.5654 9.14156C13.2397 9.14156 12.9756 8.87753 12.9756 8.55182C12.9729 6.11015 10.9942 4.13148 8.55262 4.12871C8.22692 4.12871 7.96289 3.86467 7.96289 3.53897C7.96289 3.21326 8.22692 2.94922 8.55262 2.94922C11.6454 2.95263 14.1517 5.459 14.1551 8.55182C14.1551 8.87753 13.8911 9.14156 13.5654 9.14156Z" fill="#E33918"/>
<path d="M16.514 9.14108C16.1883 9.14108 15.9243 8.87704 15.9243 8.55133C15.9197 4.48187 12.622 1.18404 8.55262 1.17949C8.22692 1.17949 7.96289 0.915456 7.96289 0.589747C7.96289 0.264039 8.22692 0 8.55262 0C13.2731 0.00520035 17.0986 3.83072 17.1038 8.55133C17.1038 8.70774 17.0416 8.85775 16.931 8.96835C16.8204 9.07895 16.6704 9.14108 16.514 9.14108Z" fill="#E33918"/>
</svg>
