<svg width="20" height="14" viewBox="0 0 20 14" fill="none" xmlns="http://www.w3.org/2000/svg">
<path d="M1.16833 0.0616283C1.05966 0.0953541 0.969727 0.136574 0.969727 0.155311C0.969727 0.177794 2.83587 2.06267 5.1217 4.3485L9.26993 8.50048L9.4498 8.52671C9.86574 8.58292 9.54348 8.87146 14.0814 4.32602C16.3523 2.05143 18.2072 0.174047 18.2072 0.155311C18.2072 0.136574 18.1097 0.0916071 17.9898 0.0578814C17.7912 0.00167274 17.0455 -0.0020752 9.56596 0.00167274C2.27752 0.00541973 1.34071 0.00916672 1.16833 0.0616283Z" fill="#E33918"/>
<path d="M0.0849356 1.09155C0.0174847 1.24519 0.0137375 1.48501 0.00249565 6.66374C-0.00499889 11.3928 0.00249565 12.101 0.0512101 12.2659C0.0811883 12.3708 0.122408 12.4832 0.144892 12.5132C0.17487 12.5582 0.766939 11.9849 3.09399 9.65781L6.00937 6.74243L3.10523 3.8383C1.5089 2.24196 0.189859 0.934164 0.178617 0.934164C0.163628 0.934164 0.122408 1.00536 0.0849356 1.09155Z" fill="#E33918"/>
<path d="M16.0711 3.8383L13.167 6.74243L16.0824 9.65781C18.4094 11.9849 19.0015 12.5582 19.0315 12.5132C19.054 12.4832 19.0952 12.3708 19.1251 12.2659C19.1739 12.101 19.1814 11.3928 19.1739 6.66374C19.1626 1.48501 19.1589 1.24519 19.0914 1.09155C19.054 1.00536 19.0127 0.934164 18.9977 0.934164C18.9865 0.934164 17.6675 2.24196 16.0711 3.8383Z" fill="#E33918"/>
<path d="M3.84388 10.4155C2.26253 12.0006 0.969727 13.3122 0.969727 13.3309C0.969727 13.3496 1.06716 13.3946 1.18707 13.4283C1.38567 13.4845 2.13513 13.4883 9.58844 13.4883C17.0418 13.4883 17.7912 13.4845 17.9898 13.4283C18.1097 13.3946 18.2072 13.3496 18.2072 13.3309C18.2072 13.3122 16.9106 11.9969 15.3255 10.4043L12.4439 7.51139L11.5295 8.41448C10.7576 9.18267 10.5815 9.33631 10.3754 9.43374C9.86949 9.68106 9.30365 9.68106 8.80527 9.43748C8.59542 9.33631 8.42304 9.18642 7.65485 8.42197C7.16021 7.93108 6.74427 7.53012 6.73303 7.53012C6.72553 7.53012 5.42148 8.82668 3.84388 10.4155Z" fill="#E33918"/>
</svg>
