<svg width="19" height="21" viewBox="0 0 19 21" fill="none" xmlns="http://www.w3.org/2000/svg">
<path d="M8.66715 0.0602293C6.41896 0.437663 4.53999 2.33303 4.17077 4.58943C4.09282 5.08994 4.09282 5.97609 4.17077 6.4766C4.53999 8.7535 6.42716 10.6407 8.70407 11.0099C9.20458 11.0878 10.0907 11.0878 10.5912 11.0099C12.8681 10.6407 14.7553 8.7535 15.1245 6.4766C15.2025 5.97609 15.2025 5.08994 15.1245 4.58943C14.7553 2.31252 12.8681 0.425355 10.5912 0.0561275C10.1112 -0.021821 9.13894 -0.0177183 8.66715 0.0602293Z" fill="#E33918"/>
<path d="M7.24771 12.3683C4.88876 12.7416 2.86621 14.0872 1.59852 16.1303C0.860066 17.3118 0.416992 18.8298 0.416992 20.1508C0.416992 20.6554 0.458018 20.7703 0.68776 20.9221C0.802631 20.9959 1.05699 21 9.6477 21C18.2384 21 18.4928 20.9959 18.6076 20.9221C18.8374 20.7703 18.8784 20.6554 18.8784 20.1426C18.8784 18.1282 17.9389 16.0031 16.3882 14.518C15.2518 13.4267 13.9882 12.7662 12.3718 12.4175C11.9902 12.3354 11.8343 12.3313 9.79129 12.319C8.06412 12.3108 7.53899 12.319 7.24771 12.3683Z" fill="#E33918"/>
</svg>
