<svg width="24" height="14" viewBox="0 0 24 14" fill="none" xmlns="http://www.w3.org/2000/svg">
<path opacity="0.3" d="M0.595 6.88C0.595 6.14333 0.725333 5.42367 0.986 4.721C1.24667 4.007 1.62633 3.361 2.125 2.783C2.635 2.19367 3.25267 1.729 3.978 1.389C4.70333 1.03767 5.525 0.861999 6.443 0.861999C7.531 0.861999 8.47167 1.11133 9.265 1.61C10.0583 2.09733 10.6477 2.72633 11.033 3.497L9.537 4.5C9.31033 4.01267 9.02133 3.62733 8.67 3.344C8.33 3.06067 7.956 2.86233 7.548 2.749C7.15133 2.63567 6.76033 2.579 6.375 2.579C5.74033 2.579 5.185 2.70933 4.709 2.97C4.233 3.21933 3.83067 3.55367 3.502 3.973C3.18467 4.39233 2.941 4.86267 2.771 5.384C2.61233 5.90533 2.533 6.42667 2.533 6.948C2.533 7.526 2.62933 8.087 2.822 8.631C3.01467 9.16367 3.281 9.63967 3.621 10.059C3.97233 10.467 4.386 10.79 4.862 11.028C5.338 11.266 5.85933 11.385 6.426 11.385C6.81133 11.385 7.21367 11.317 7.633 11.181C8.05233 11.045 8.43767 10.8353 8.789 10.552C9.15167 10.2573 9.435 9.872 9.639 9.396L11.22 10.297C10.9707 10.8977 10.5797 11.4077 10.047 11.827C9.52567 12.2463 8.93633 12.5637 8.279 12.779C7.633 12.9943 6.99267 13.102 6.358 13.102C5.508 13.102 4.73167 12.9263 4.029 12.575C3.32633 12.2123 2.72 11.7363 2.21 11.147C1.7 10.5463 1.30333 9.87767 1.02 9.141C0.736667 8.393 0.595 7.63933 0.595 6.88ZM14.0181 13V0.929999H15.9221V5.979H17.3331L21.1241 0.929999H23.3001L18.8631 6.778L23.6231 13H21.2941L17.3331 7.73H15.9221V13H14.0181Z" fill="white"/>
</svg>
